<?xml version="1.0" encoding="utf-8"?>
<!-- Generator: Adobe Illustrator 21.1.0, SVG Export Plug-In . SVG Version: 6.00 Build 0)  -->
<svg version="1.1" id="Layer_1" xmlns="http://www.w3.org/2000/svg" xmlns:xlink="http://www.w3.org/1999/xlink" x="0px" y="0px"
	 viewBox="0 0 360 360" style="enable-background:new 0 0 360 360;" xml:space="preserve">
<style type="text/css">
	.st0{fill:#586E94;}
	.st1{fill:#DB1D46;}
	.st2{fill:url(#SVGID_1_);}
	.st3{fill:url(#SVGID_2_);}
	.st4{fill:none;}
</style>
<g>
	<path class="st0" d="M240.8,82.8c-17.7-11-38.5-17.4-60.8-17.4c-63.6,0-115.1,51.5-115.1,115.1c0,21.6,6,41.8,16.3,59.1l-20.5,19.7
		c-4.6,1.9-8.9,2.6-10.6-0.3c-2.1-3.5,2.4-7.8,7.7-11.4c4.1-2.8,8.2-6.9,8.6-9.1c-0.5-0.9-0.9-1.9-1.4-2.8l0.3,0.7
		c-0.7-1.8-7.4-1.4-13.1,0.3c-6.1,1.7-12.2,2.5-13.7-1.4c-1.4-3.9,3.8-7.3,9.5-9.9c4.5-2,9.3-5.4,10.1-7.5c-0.3-1.2-0.7-2.4-1-3.6
		l0.3,1.4c-0.3-1.9-7-2.6-12.9-2c-6.3,0.7-12.5,0.4-13.3-3.7c-0.8-4.1,5-6.5,11.1-8.1c4.9-1.3,10.2-3.8,11.2-5.7
		c-0.2-1.4-0.3-2.8-0.4-4.1v1.9c0-1.9-6.5-3.8-12.4-4.3c-6.3-0.4-12.3-1.8-12.4-5.9c0-4.1,6-5.6,12.3-6c5-0.4,10.7-2,12.1-3.7
		c0.1-1.5,0.3-3,0.3-4.5l-0.3,2.2c0.3-1.9-5.7-4.9-11.5-6.3c-6.2-1.5-11.9-3.9-11.1-7.9c0.7-4.1,6.9-4.4,13.2-3.8
		c5.1,0.5,11.1-0.1,12.6-1.6c0.3-1.4,0.6-2.7,1-4.1l-0.7,1.8c0.7-1.9-4.8-5.8-10.1-8.3c-5.7-2.6-11-5.9-9.6-9.8
		c1.4-3.9,7.5-3.1,13.7-1.4c4.9,1.4,10.8,1.8,12.6,0.7c0.6-1.4,1.3-2.8,1.9-4.1l-1.1,1.9c0.9-1.7-3.7-6.6-8.6-9.9
		c-5.2-3.5-9.8-7.7-7.8-11.3c2-3.6,8-1.8,13.7,0.9c4.6,2.2,10.6,3.7,12.4,2.8c0.8-1.4,1.8-2.7,2.7-4l-1.7,2
		c1.3-1.5-2.5-7.1-6.8-11.2c-4.6-4.4-8.4-9.3-5.7-12.5c2.6-3.2,8.2-0.3,13.3,3.3c4.2,3,9.8,5.5,11.7,4.9c1-1.1,2.1-2.2,3.1-3.3
		l-1.9,1.5c1.4-1.3-1.3-7.4-4.7-12.2c-3.6-5-6.5-10.5-3.4-13.2c3.1-2.7,8.1,1,12.6,5.6c3.6,3.6,8.6,7.1,10.7,6.8
		c1.3-1,2.6-1.9,3.9-2.9l-2.3,1.4c1.7-1,0.1-7.5-2.5-12.8c-2.8-5.7-4.6-11.6-1.1-13.7c3.5-2.1,7.8,2.4,11.4,7.7
		c2.9,4.2,7.3,8.4,9.4,8.6c1.3-0.7,2.6-1.4,4-1.9l-2,0.8c1.8-0.7,1.4-7.4-0.3-13.1c-1.7-6.1-2.6-12.2,1.3-13.7
		c3.9-1.4,7.3,3.8,9.9,9.5c2.1,4.6,5.6,9.5,7.6,10.1c1.4-0.4,2.8-0.8,4.2-1.2l-2,0.3c1.9-0.3,2.6-7,2-12.9
		c-0.7-6.3-0.4-12.5,3.6-13.3c4.1-0.8,6.5,5,8.1,11.1c1.3,5,3.9,10.4,5.8,11.2c1.8-0.3,3.5-0.4,5.2-0.5H167c1.9,0,3.9-6.4,4.3-12.3
		c0.5-6.3,1.9-12.3,6-12.3s5.5,6.1,6,12.3c0.3,5,1.9,10.7,3.6,12.1c1.4,0.1,2.9,0.2,4.3,0.3l-1.9-0.3c1.9,0.3,4.9-5.7,6.4-11.4
		c1.6-6.2,4-11.8,8-11.1c4.1,0.8,4.4,6.9,3.7,13.2c-0.5,5,0,10.9,1.4,12.5c1.1,0.3,2.3,0.5,3.4,0.8l-1.1-0.4
		c1.8,0.7,5.8-4.7,8.3-10.1c2.6-5.7,5.9-11,9.8-9.5c3.9,1.4,3.1,7.6,1.4,13.7c-1.4,4.7-1.9,10.6-0.8,12.5c1.1,0.5,2.2,1,3.2,1.4
		l-1-0.6c1.7,0.9,6.6-3.6,10-8.5c3.5-5.2,7.8-9.8,11.3-7.7c3.6,2.1,1.8,8-1,13.7c-1.3,2.7-2.4,5.7-2.8,8.2
		C249.3,71.2,240.8,82.8,240.8,82.8z"/>
	<path class="st1" d="M296.2,103.1c5.7-2.7,11.7-4.6,13.7-1c2.1,3.5-2.4,7.8-7.7,11.4c-4,2.7-8,6.8-8.6,9c0.4,0.8,0.9,1.7,1.4,2.6
		c1.4,1.4,7.5,1,12.9-0.5c6.1-1.7,12.2-2.5,13.7,1.4c1.4,3.9-3.8,7.3-9.5,9.9c-4.4,1.9-9,5.2-10,7.3c0.3,0.9,0.5,1.9,0.8,2.9
		c1,1.7,7.3,2.3,12.8,1.8c6.3-0.6,12.5-0.3,13.2,3.7c0.8,4.1-5,6.5-11.1,8c-4.6,1.2-9.7,3.5-11.1,5.4c0.1,1,0.3,2,0.3,3
		c0.8,1.8,6.8,3.5,12.2,3.9c6.3,0.5,12.3,1.8,12.3,5.9c0,4.1-6.1,5.5-12.3,6c-4.7,0.3-10.1,1.8-11.8,3.4c-0.1,1-0.2,2-0.3,3
		c0.5,1.9,6.1,4.6,11.4,6c6.2,1.6,11.8,3.9,11.1,8c-0.7,4.1-6.9,4.4-13.2,3.7c-4.7-0.5-10.2,0-12.2,1.3c-0.3,1-0.4,2.1-0.8,3.1
		c0.4,2,5.3,5.5,10.1,7.7c5.7,2.6,11,5.9,9.6,9.8c-1.4,3.9-7.6,3.1-13.7,1.4c-4.5-1.3-10-1.8-12.2-0.9c-0.4,1-0.8,1.9-1.4,3
		c0,2,4.2,6.3,8.7,9.4c5.2,3.5,9.8,7.8,7.8,11.3c-2,3.6-8,1.8-13.7-1c-4.3-2-9.6-3.5-11.8-3c-0.6,0.9-1.2,1.8-1.8,2.7
		c-0.3,2,3.1,6.9,6.9,10.7c4.6,4.4,8.3,9.3,5.7,12.5c-2.6,3.2-8.2,0.3-13.3-3.4c-3.9-2.8-8.9-5.1-11.1-5c-0.8,0.8-1.4,1.5-2.2,2.3
		c-0.7,1.9,1.8,7.4,5,11.8c3.7,5.2,6.6,10.6,3.4,13.3c-3.2,2.6-8.1-1.1-12.5-5.6c-3.3-3.4-7.8-6.5-10.1-6.8
		c-0.8,0.7-1.7,1.3-2.6,1.9c-1,1.7,0.5,7.6,2.8,12.5c2.7,5.7,4.6,11.6,1,13.7c-3.5,2.1-7.8-2.4-11.4-7.7c-2.7-3.9-6.6-7.8-8.8-8.5
		c-1,0.5-1.9,1-3,1.5c-1.3,1.7-0.8,7.6,0.7,12.7c1.7,6.1,2.5,12.2-1.4,13.7s-7.3-3.8-9.9-9.5c-1.9-4.3-5.1-8.8-7.1-9.9
		c-1,0.3-2,0.6-3.1,0.8c-1.5,1.3-2.1,7.3-1.6,12.7c0.6,6.3,0.4,12.5-3.7,13.3c-4.1,0.8-6.5-5-8-11.1c-1.2-4.6-3.5-9.6-5.4-11.1
		c-1,0.1-2,0.3-3.1,0.3c-1.8,0.9-3.4,6.8-3.8,12.2c-0.5,6.3-1.8,12.3-5.9,12.4c-4.1,0-5.5-6-6-12.3c-0.3-4.7-1.8-10.1-3.4-11.8
		c-1-0.1-2-0.2-3-0.3c-1.9,0.4-4.6,6.1-6,11.4c-1.5,6.2-3.9,11.9-8,11.1c-4.1-0.7-4.4-6.9-3.8-13.2c0.5-4.8,0-10.4-1.4-12.2
		c-1-0.3-1.9-0.4-3-0.7c-1.9,0.2-5.6,5.2-7.8,10.2c-2.6,5.7-5.9,11-9.8,9.6c-3.9-1.4-3.1-7.6-1.4-13.7c1.3-4.6,1.8-10.1,0.8-12.2
		c-0.8-0.3-1.7-0.8-2.5-1.2c-1.9-0.6-6.5,3.9-9.7,8.6c-3.5,5.2-7.8,9.8-11.3,7.8c-3.6-2-1.8-8,0.9-13.7c2.1-4.4,3.5-9.9,3-12.1
		c-0.7-0.4-1.4-0.9-2.1-1.4c-1.5-1.2-7.1,2.5-11.2,6.8c-4.4,4.6-9.3,8.4-12.5,5.7c-3.2-2.6-0.3-8.2,3.3-13.3
		c0.4-0.6,0.8-1.3,1.3-1.9l16.2-15.1c20.1,17.1,46,27.4,74.5,27.4c63.6,0,115.1-51.5,115.1-115.1c0-25.1-8-48.2-21.6-67.1
		c0,0,11.7-6.9,13.5-7.2C287,106.2,293.1,104.6,296.2,103.1z"/>
</g>
<g>
	
		<linearGradient id="SVGID_1_" gradientUnits="userSpaceOnUse" x1="87.3028" y1="187.5771" x2="269.6517" y2="187.5771" gradientTransform="matrix(1 0 0 -1 0 360)">
		<stop  offset="0" style="stop-color:#586E94"/>
		<stop  offset="1" style="stop-color:#E9234B"/>
	</linearGradient>
	<path class="st2" d="M262.1,153.4c-5.1-6.8-11.9-12.9-17.7-19.1c-4.8-5.1-9.6-9.7-15.5-13.6c-4.1-2.7-8.7-5.3-13.6-6.3
		c-4.3-0.8-7.9,0.8-12.1,1.2c-4.6,0.5-9.5,0.1-13.9-1.7c-2.6-1-5-2.5-7.8-3.3c-9.9-2.7-21.2-1.1-29.6,4.7c-2.2,1.5-4.2,3.7-6.6,4.8
		c-4.1,1.9-9.1,0.6-13.3,0.9c-10.2,0.7-17.7,7.1-22.6,15.8c-1.8,3.2-3,6.9-5.1,9.9c-2.3,3.3-5.7,4.4-8.4,7
		c-11.8,11-10.1,33-3.2,46.4c5.8,11.4,17.2,15.6,29.5,15.1c4.9-0.2,11.7-0.1,15.9-3c4.4-3,3.7-9,6.6-13c2.4-3.4,6.1-6.5,10-8
		c4.3-1.7,2.1,1.5,0.3,3.8c-2.8,3.5-7.2,5.2-9.7,8.9c-2.9,4.3-3,10.3-1.9,15.2c2.1,9,9.6,15.3,18.9,15.9c5.2,0.3,8.6-1.4,13.1-3.1
		c5.1-2,8.2,3.5,13.2,3.5c5.9,0.1,12-2.8,17.3-4.9c5.2-2,11-4.1,14.7-8.4c3-3.4,2.8-10,7.7-11.3c2.6-0.8,5.9,0,8.6-0.1
		c3.3-0.1,6.8-0.1,10-0.6c20.5-3.3,25.9-25.9,21.4-43.4C267,162,265,157.3,262.1,153.4z M203.6,163.9c4.4,0,10.1,5.4,10.1,5.4
		c-6-1.7-13.6-4.2-19.8-2.8c-4.9,1.1-7.9,5.2-12.1,7.6c-2.9,1.7-6.3,1.2-9.5,0.6c3.7-1.2,7.7-1.9,11-4.1c2.5-1.7,4.4-3.5,5.3-6.4
		c0.8-2.6,1.3-4.7,3.4-6.7C193.8,163.7,197.6,163.9,203.6,163.9z M157.7,138.7c-3.5,3.5-7.6,4.2-12.3,4.7
		c-6.8,0.8-11.9,3.6-15.4,9.6c-2.9,5-3.3,9,1.1,13.2c4.3,4,10.6,5.7,13.3,11.3c0.9,1.8,1.6,4.4-1.5,3c-1.6-0.8-2.9-3.4-4-4.7
		c-4-4.9-9.2-9.5-15.6-10.5c-14.6-2.4-23.1,17.9-10.6,26.4c3.2,2.2,6.2,1.7,9.8,1.4c2.2-0.2,6,1.4,3,4c-3.5,3-14-2.8-16.7-4.9
		c-5.7-4.4-6.2-12-4.1-18.3c2-6,6.4-9.6,12.3-11.5c1.3-0.4,3-0.4,4.1-1.1c2.9-1.4,3.3-5.2,4.7-7.7c3.3-5.7,9.1-12.2,15.6-14
		c4.6-1.3,11.6,0.3,14.6-3.9c2.6-3.5,2.8-6,7.1-7.9c7.3-3.2,14.7-3.8,21.9-0.4c2.7,1.3,5.5,2.9,7.7,5c1.2,1.2,2.3,1.8,0.8,2.4
		c-2.3,1.1-8.1-4-10.3-4.7c-3.8-1.4-8-1.2-12-0.8c-3.6,0.3-7.3,0.8-9.9,3.6C159.8,134.5,159.4,137,157.7,138.7z M251.2,175.3
		c-2.6,6.6-10.2,15.1-17.6,15.6c-8.3,0.6-16.6-0.5-24.8,0.8c-9,1.4-16.1,8.7-20.8,16c-2.2,3.4-6.4,7.6-10.8,6.3
		c-3-0.8-5.7-3.9-7.9-6.2c2.5,2,6.3,4.1,9.6,3c3.4-1.1,6.3-5.1,8.6-7.5c7.9-8.2,14.5-14.8,26.4-15.1c11-0.3,21.9,0.3,30.7-7.6
		c3.8-3.5,4.4-7.8,1.4-12c-3.2-4.6-6.3-8.4-8.5-13.7c-2.4-5.3-4.3-12-9.5-15.4c-4.1-2.7-9.6-3.5-14.4-2.6c9.9-6.9,20.7,3,25.2,11.7
		c2.3,4.5,2.2,8.5,6,12.2C248.3,164.4,253.4,170.1,251.2,175.3z"/>
	
		<linearGradient id="SVGID_2_" gradientUnits="userSpaceOnUse" x1="200.8337" y1="131.4205" x2="265.5417" y2="131.4205" gradientTransform="matrix(1 0 0 -1 0 360)">
		<stop  offset="0" style="stop-color:#586E94"/>
		<stop  offset="1" style="stop-color:#E9234B"/>
	</linearGradient>
	<path class="st3" d="M261.1,207.3c10.9,1.7-1.4,22.9-4.6,26.9c-4.3,5.4-9.6,6.5-15.9,8.8c-4.1,1.5-8.1,3.6-12.2,5.2
		c-6.5,2.4-14.2,2.6-20.5-0.3c-3-1.4-9.1-5.7-6.3-9.7c1.3-1.8,4.2-2.7,6.2-3.5c3.5-1.6,6.8-3.5,9.8-5.8c2.8-2.2,5.1-4.9,7.1-7.8
		c1.2-1.7,2.4-4.6,4.1-5.8c1.5-0.9,3.6-0.5,5.3-0.4c3.5,0.1,6.8,0.1,10.3-0.3C250.5,213.6,256.2,210.9,261.1,207.3z"/>
</g>
<path id="SVGID_x5F_3_x5F_" class="st4" d="M356.5,180.5c0,97.6-79.1,176.8-176.8,176.8S3,278.1,3,180.5S82.1,3.7,179.8,3.7
	S356.5,82.8,356.5,180.5z"/>
<text><textPath  xlink:href="#SVGID_x5F_3_x5F_" startOffset="920.9506%">
<tspan  style="fill:#333333; font-family:'FranklinGothicFS-Demi'; font-size:20.2717px; letter-spacing:-40;">Philadelphia, PA – USA   June 27–29, 2017 </tspan></textPath>
</text>
<path id="SVGID_x5F_4_x5F_" class="st4" d="M339.6,180.5c0,88.3-71.6,159.9-159.9,159.9S19.9,268.7,19.9,180.5S91.5,20.6,179.8,20.6
	S339.6,92.2,339.6,180.5z"/>
<text><textPath  xlink:href="#SVGID_x5F_4_x5F_" startOffset="187.5163%">
<tspan  style="fill:#333333; font-family:'FranklinGothicFS-Demi'; font-size:20.2717px;">2nd International Neuroergonomics Conference </tspan></textPath>
</text>
</svg>
