<?xml version="1.0" encoding="utf-8"?>
<!-- Generator: Adobe Illustrator 21.1.0, SVG Export Plug-In . SVG Version: 6.00 Build 0)  -->
<svg version="1.1" id="Layer_1" xmlns="http://www.w3.org/2000/svg" xmlns:xlink="http://www.w3.org/1999/xlink" x="0px" y="0px"
	 viewBox="0 0 360 360" style="enable-background:new 0 0 360 360;" xml:space="preserve">
<style type="text/css">
	.st0{fill:#586E94;}
	.st1{fill:#DB1D46;}
	.st2{fill:url(#SVGID_1_);}
	.st3{fill:url(#SVGID_2_);}
</style>
<g>
	<path class="st0" d="M252,64.8c-20.9-13-45.6-20.6-72-20.6c-75.3,0-136.3,61-136.3,136.3c0,25.6,7.1,49.5,19.3,70l-24.3,23.3
		c-5.5,2.2-10.5,3.1-12.6-0.4c-2.5-4.2,2.9-9.2,9.1-13.5c4.8-3.3,9.7-8.2,10.2-10.8c-0.6-1.1-1.1-2.2-1.7-3.3l0.3,0.8
		c-0.8-2.1-8.8-1.7-15.5,0.3c-7.2,2-14.5,3-16.2-1.6c-1.7-4.6,4.5-8.6,11.3-11.7c5.3-2.4,11-6.4,11.9-8.9c-0.4-1.4-0.8-2.8-1.2-4.3
		l0.3,1.6c-0.4-2.3-8.3-3.1-15.3-2.4c-7.4,0.8-14.8,0.5-15.7-4.4c-0.9-4.8,5.9-7.7,13.1-9.6c5.8-1.5,12.1-4.5,13.3-6.8
		c-0.2-1.6-0.4-3.3-0.5-4.9l0,2.2c0-2.3-7.7-4.5-14.7-5.1c-7.5-0.5-14.6-2.1-14.7-7c0-4.9,7.1-6.6,14.6-7.1
		c5.9-0.5,12.7-2.4,14.3-4.4c0.1-1.8,0.3-3.5,0.4-5.3l-0.4,2.6c0.4-2.3-6.8-5.8-13.6-7.5c-7.3-1.8-14.1-4.6-13.2-9.4
		c0.8-4.8,8.2-5.2,15.6-4.5c6,0.6,13.1-0.1,14.9-1.9c0.4-1.6,0.7-3.2,1.2-4.8l-0.8,2.1c0.8-2.2-5.7-6.9-12-9.8
		c-6.8-3.1-13-7-11.4-11.6c1.7-4.6,8.9-3.7,16.2-1.7c5.8,1.6,12.8,2.1,14.9,0.8c0.7-1.7,1.5-3.3,2.2-4.9l-1.3,2.3
		c1.1-2-4.4-7.8-10.2-11.7c-6.2-4.2-11.6-9.1-9.2-13.4c2.4-4.3,9.5-2.1,16.2,1.1c5.5,2.6,12.5,4.4,14.7,3.3c1-1.6,2.1-3.2,3.2-4.7
		l-2,2.4c1.5-1.8-3-8.4-8-13.3c-5.4-5.2-9.9-11-6.7-14.8c3.1-3.8,9.7-0.4,15.8,3.9c5,3.6,11.6,6.5,13.9,5.8c1.2-1.3,2.5-2.6,3.7-3.9
		l-2.2,1.8c1.7-1.5-1.5-8.8-5.6-14.5C61,55,57.6,48.5,61.3,45.3c3.7-3.2,9.6,1.2,14.9,6.6c4.3,4.3,10.2,8.4,12.7,8.1
		c1.5-1.2,3.1-2.3,4.6-3.4l-2.7,1.6c2-1.2,0.1-8.9-3-15.2c-3.3-6.7-5.5-13.7-1.3-16.2s9.2,2.9,13.5,9.1c3.4,5,8.6,10,11.1,10.2
		c1.5-0.8,3.1-1.6,4.7-2.3l-2.4,0.9c2.1-0.8,1.6-8.8-0.3-15.5c-2-7.2-3.1-14.5,1.5-16.2c4.6-1.7,8.6,4.5,11.7,11.3
		c2.5,5.4,6.6,11.2,9,11.9c1.7-0.5,3.3-1,5-1.4l-2.4,0.4c2.2-0.4,3.1-8.3,2.4-15.3c-0.8-7.4-0.5-14.8,4.3-15.7
		c4.8-0.9,7.7,5.9,9.6,13.1c1.5,5.9,4.6,12.3,6.9,13.3c2.1-0.3,4.1-0.5,6.2-0.6h-2.7c2.3,0,4.6-7.6,5.1-14.6
		c0.6-7.5,2.2-14.6,7.1-14.6s6.5,7.2,7.1,14.6c0.4,5.9,2.3,12.7,4.3,14.3c1.7,0.1,3.4,0.2,5.1,0.4l-2.3-0.4
		c2.3,0.4,5.8-6.7,7.6-13.5c1.9-7.3,4.7-14,9.5-13.2c4.8,0.9,5.2,8.2,4.4,15.6c-0.6,5.9,0,12.9,1.7,14.8c1.3,0.3,2.7,0.6,4,1
		l-1.3-0.5c2.1,0.8,6.9-5.6,9.8-12c3.1-6.8,7-13,11.6-11.3c4.6,1.7,3.7,9,1.6,16.2c-1.6,5.6-2.2,12.5-0.9,14.8
		c1.3,0.6,2.6,1.2,3.8,1.7l-1.2-0.7c2,1.1,7.8-4.3,11.8-10.1c4.2-6.2,9.2-11.6,13.4-9.1c4.3,2.5,2.1,9.5-1.2,16.2
		c-1.5,3.2-2.8,6.8-3.3,9.7C262.1,51.1,252,64.8,252,64.8z"/>
	<path class="st1" d="M317.6,88.9c6.8-3.2,13.8-5.5,16.2-1.2c2.5,4.2-2.9,9.2-9.1,13.5c-4.7,3.2-9.5,8-10.2,10.6
		c0.5,1,1.1,2,1.6,3.1c1.6,1.7,8.9,1.2,15.3-0.6c7.2-2,14.5-3,16.2,1.6c1.7,4.6-4.5,8.6-11.3,11.7c-5.2,2.3-10.6,6.1-11.8,8.6
		c0.3,1.1,0.6,2.2,1,3.4c1.2,2,8.6,2.7,15.1,2.1c7.5-0.7,14.8-0.4,15.6,4.4c0.9,4.8-5.9,7.7-13.2,9.5c-5.5,1.4-11.5,4.2-13.1,6.4
		c0.1,1.2,0.3,2.4,0.4,3.5c1,2.1,8,4.1,14.5,4.6c7.5,0.6,14.6,2.1,14.6,7c0,4.9-7.2,6.5-14.6,7.1c-5.6,0.4-12,2.1-14,4
		c-0.1,1.2-0.2,2.4-0.3,3.6c0.6,2.3,7.2,5.5,13.5,7.1c7.3,1.9,14,4.6,13.2,9.5c-0.8,4.8-8.2,5.2-15.6,4.4c-5.6-0.6-12.1,0-14.4,1.5
		c-0.3,1.2-0.5,2.5-0.9,3.7c0.5,2.4,6.3,6.5,12,9.1c6.8,3.1,13,7,11.4,11.6c-1.7,4.6-9,3.7-16.2,1.7c-5.3-1.5-11.8-2.1-14.4-1.1
		c-0.5,1.2-1,2.3-1.6,3.5c0,2.4,5,7.5,10.3,11.1c6.2,4.2,11.6,9.2,9.2,13.4c-2.4,4.3-9.5,2.1-16.2-1.2c-5.1-2.4-11.4-4.1-14-3.5
		c-0.7,1.1-1.4,2.1-2.1,3.2c-0.4,2.4,3.7,8.2,8.2,12.7c5.4,5.2,9.8,11,6.7,14.8c-3.1,3.8-9.7,0.4-15.8-4c-4.6-3.3-10.5-6-13.2-5.9
		c-0.9,0.9-1.7,1.8-2.6,2.7c-0.8,2.2,2.1,8.8,5.9,14c4.4,6.1,7.8,12.6,4,15.7s-9.6-1.3-14.8-6.6c-3.9-4-9.2-7.7-12-8.1
		c-1,0.8-2,1.5-3.1,2.2c-1.2,2,0.6,9,3.3,14.8c3.2,6.7,5.5,13.7,1.2,16.2c-4.2,2.5-9.2-2.9-13.5-9.1c-3.2-4.6-7.8-9.2-10.4-10.1
		c-1.2,0.6-2.3,1.2-3.5,1.8c-1.5,2-0.9,9,0.8,15c2,7.2,3,14.5-1.6,16.2c-4.6,1.7-8.6-4.5-11.7-11.3c-2.3-5.1-6-10.4-8.4-11.7
		c-1.2,0.4-2.4,0.7-3.7,1c-1.8,1.5-2.5,8.7-1.9,15c0.7,7.5,0.5,14.8-4.4,15.7c-4.8,0.9-7.7-5.9-9.5-13.2c-1.4-5.5-4.2-11.4-6.4-13.1
		c-1.2,0.1-2.4,0.3-3.7,0.4c-2.1,1.1-4,8.1-4.5,14.5c-0.6,7.5-2.1,14.6-7,14.7c-4.9,0-6.5-7.1-7.1-14.6c-0.4-5.6-2.1-12-4-14
		c-1.2-0.1-2.4-0.2-3.5-0.3c-2.3,0.5-5.5,7.2-7.1,13.5c-1.8,7.3-4.6,14.1-9.5,13.2c-4.8-0.8-5.2-8.2-4.5-15.6
		c0.6-5.7,0-12.3-1.6-14.5c-1.2-0.3-2.3-0.5-3.5-0.8c-2.3,0.2-6.6,6.2-9.2,12.1c-3.1,6.8-7,13-11.6,11.4c-4.6-1.7-3.7-9-1.7-16.2
		c1.5-5.5,2.1-12,1-14.5c-1-0.4-2-0.9-3-1.4c-2.2-0.7-7.7,4.6-11.5,10.2c-4.2,6.2-9.2,11.6-13.4,9.2c-4.3-2.4-2.1-9.5,1.1-16.2
		c2.5-5.2,4.2-11.7,3.5-14.3c-0.8-0.5-1.7-1.1-2.5-1.6c-1.8-1.4-8.4,3-13.3,8c-5.2,5.4-11,9.9-14.8,6.7c-3.8-3.1-0.4-9.7,3.9-15.8
		c0.5-0.7,1-1.5,1.5-2.2l19.2-17.9c23.8,20.2,54.5,32.4,88.2,32.4c75.3,0,136.3-61,136.3-136.3c0-29.7-9.5-57.1-25.6-79.5
		c0,0,13.8-8.2,16-8.5C306.7,92.5,313.9,90.7,317.6,88.9z"/>
</g>
<g>
	<linearGradient id="SVGID_1_" gradientUnits="userSpaceOnUse" x1="70.2352" y1="170.8864" x2="286.2527" y2="170.8864">
		<stop  offset="0" style="stop-color:#586E94"/>
		<stop  offset="1" style="stop-color:#E9234B"/>
	</linearGradient>
	<path class="st2" d="M277.2,148.4c-6-8.1-14.1-15.3-21-22.6c-5.7-6-11.4-11.5-18.3-16.1c-4.9-3.2-10.3-6.3-16.1-7.4
		c-5.1-0.9-9.4,0.9-14.3,1.4c-5.5,0.6-11.3,0.1-16.4-2c-3.1-1.2-5.9-3-9.2-3.9c-11.7-3.2-25.1-1.3-35.1,5.6c-2.6,1.8-5,4.4-7.8,5.7
		c-4.8,2.2-10.8,0.7-15.8,1.1c-12.1,0.8-21,8.4-26.7,18.7c-2.1,3.8-3.5,8.2-6,11.7c-2.7,3.9-6.7,5.2-10,8.3
		c-14,13-11.9,39.1-3.8,54.9c6.9,13.5,20.4,18.5,34.9,17.9c5.8-0.2,13.8-0.1,18.8-3.5c5.2-3.5,4.4-10.6,7.8-15.4
		c2.8-4,7.2-7.7,11.8-9.5c5.1-2,2.5,1.8,0.3,4.5c-3.3,4.1-8.5,6.2-11.5,10.5c-3.4,5.1-3.6,12.2-2.2,18c2.5,10.7,11.4,18.1,22.4,18.8
		c6.1,0.4,10.2-1.6,15.5-3.7c6-2.4,9.7,4.1,15.6,4.2c7,0.1,14.2-3.3,20.5-5.8c6.1-2.4,13-4.9,17.4-9.9c3.6-4,3.3-11.8,9.1-13.4
		c3.1-0.9,7,0,10.2-0.1c3.9-0.1,8-0.1,11.8-0.7c24.3-3.9,30.7-30.7,25.3-51.4C283,158.6,280.7,153.1,277.2,148.4z M208,160.9
		c5.2,0,11.9,6.4,11.9,6.4c-7.1-2-16.1-5-23.4-3.3c-5.8,1.3-9.4,6.1-14.3,9c-3.4,2-7.4,1.4-11.2,0.7c4.4-1.4,9.1-2.3,13-4.9
		c3-2,5.2-4.2,6.3-7.6c0.9-3.1,1.5-5.6,4-7.9C196.4,160.6,200.9,160.9,208,160.9z M153.6,131c-4.1,4.1-9,5-14.6,5.6
		c-8,0.9-14.1,4.3-18.2,11.4c-3.4,5.9-3.9,10.7,1.3,15.6c5.1,4.7,12.5,6.8,15.8,13.4c1.1,2.1,1.9,5.2-1.8,3.5
		c-1.9-0.9-3.4-4-4.7-5.6c-4.7-5.8-10.9-11.2-18.5-12.4c-17.3-2.9-27.4,21.2-12.6,31.2c3.8,2.6,7.3,2,11.6,1.7
		c2.6-0.2,7.1,1.7,3.5,4.7c-4.2,3.5-16.6-3.3-19.8-5.8c-6.8-5.2-7.3-14.2-4.8-21.7c2.4-7.1,7.6-11.4,14.6-13.6
		c1.5-0.5,3.5-0.5,4.9-1.3c3.4-1.7,3.9-6.1,5.6-9.1c3.9-6.8,10.8-14.5,18.5-16.6c5.4-1.5,13.7,0.3,17.3-4.6c3.1-4.2,3.3-7.1,8.4-9.3
		c8.6-3.8,17.4-4.5,25.9-0.5c3.2,1.5,6.5,3.4,9.1,5.9c1.4,1.4,2.7,2.1,0.9,2.9c-2.7,1.3-9.6-4.7-12.2-5.6c-4.5-1.6-9.5-1.4-14.2-1
		c-4.3,0.4-8.7,0.9-11.7,4.3C156.1,126,155.6,129,153.6,131z M264.4,174.4c-3.1,7.8-12.1,17.9-20.8,18.5c-9.8,0.7-19.6-0.6-29.4,0.9
		c-10.6,1.7-19.1,10.3-24.6,19c-2.6,4-7.6,9-12.8,7.5c-3.6-1-6.8-4.6-9.3-7.3c3,2.4,7.5,4.8,11.4,3.6c4-1.3,7.4-6,10.2-8.9
		c9.3-9.7,17.2-17.5,31.3-17.9c13-0.3,25.9,0.4,36.3-9c4.5-4.1,5.2-9.2,1.7-14.2c-3.8-5.5-7.4-10-10.1-16.2
		c-2.8-6.3-5.1-14.2-11.2-18.2c-4.8-3.2-11.4-4.2-17.1-3.1c11.7-8.2,24.5,3.6,29.8,13.9c2.7,5.3,2.6,10.1,7.1,14.4
		C260.9,161.4,266.9,168.2,264.4,174.4z"/>
	<linearGradient id="SVGID_2_" gradientUnits="userSpaceOnUse" x1="204.7187" y1="237.4134" x2="281.3357" y2="237.4134">
		<stop  offset="0" style="stop-color:#586E94"/>
		<stop  offset="1" style="stop-color:#E9234B"/>
	</linearGradient>
	<path class="st3" d="M276.1,212.2c12.9,2-1.7,27.1-5.5,31.8c-5.1,6.4-11.4,7.7-18.8,10.4c-4.9,1.8-9.6,4.3-14.5,6.1
		c-7.7,2.8-16.8,3.1-24.3-0.4c-3.6-1.7-10.8-6.8-7.4-11.5c1.5-2.1,5-3.2,7.3-4.2c4.1-1.9,8.1-4.1,11.6-6.9c3.3-2.6,6-5.8,8.4-9.2
		c1.4-2,2.8-5.5,4.9-6.9c1.8-1.1,4.3-0.6,6.3-0.5c4.1,0.1,8.1,0.1,12.2-0.3C263.5,219.7,270.3,216.5,276.1,212.2z"/>
</g>
</svg>
